<svg width="611.1749755859374px" height="244.4px" xmlns="http://www.w3.org/2000/svg" viewBox="-55.587487792968716 -47.2 611.1749755859374 244.4" style="background: rgba(0, 0, 0, 0);" preserveAspectRatio="xMidYMid"><defs><linearGradient id="editing-outline-gradient" x1="-0.41354545764260087" x2="1.4135454576426008" y1="0.09326335692419985" y2="0.9067366430758002"><stop offset="0" stop-color="#ad91ff"></stop><stop offset="1" stop-color="#a636ff"></stop></linearGradient><filter id="editing-outline" x="-100%" y="-100%" width="300%" height="300%"><feMorphology in="SourceGraphic" operator="dilate" radius="2" result="outline"></feMorphology><feComposite operator="out" in="outline" in2="SourceAlpha"></feComposite></filter></defs><g filter="url(#editing-outline)"><g transform="translate(34.0599901676178, 117.68999862670898)"><path d="M31.74 0L23.68 0L23.68-73.98L2.18-73.98L2.18-80.26L53.50-80.26L53.50-73.98L31.74-73.98L31.74 0ZM86.40 0.64L86.40 0.64Q74.24 0.64 68.35-7.62L68.35-7.62L68.35-7.62Q62.46-15.87 62.46-30.98L62.46-30.98L62.46-30.98Q62.46-46.72 68.22-54.59L68.22-54.59L68.22-54.59Q73.98-62.46 86.40-62.46L86.40-62.46L86.40-62.46Q98.82-62.46 104.64-54.59L104.64-54.59L104.64-54.59Q110.46-46.72 110.46-30.98L110.46-30.98L110.46-30.98Q110.46-15.87 104.58-7.62L104.58-7.62L104.58-7.62Q98.69 0.64 86.40 0.64L86.40 0.64ZM86.40-6.02L86.40-6.02Q95.23-6.02 98.82-12.42L98.82-12.42L98.82-12.42Q102.40-18.82 102.40-30.98L102.40-30.98L102.40-30.98Q102.40-42.88 98.75-49.41L98.75-49.41L98.75-49.41Q95.10-55.94 86.40-55.94L86.40-55.94L86.40-55.94Q77.70-55.94 74.05-49.41L74.05-49.41L74.05-49.41Q70.40-42.88 70.40-30.98L70.40-30.98L70.40-30.98Q70.40-18.82 73.98-12.42L73.98-12.42L73.98-12.42Q77.57-6.02 86.40-6.02L86.40-6.02ZM126.21 0L126.21-61.57L133.89-61.57L134.14-56.19L134.14-56.19Q137.73-58.62 143.42-60.42L143.42-60.42L143.42-60.42Q149.12-62.21 153.98-62.46L153.98-62.46L153.98-55.81L153.98-55.81Q148.48-55.81 142.91-54.14L142.91-54.14L142.91-54.14Q137.34-52.48 134.27-50.30L134.27-50.30L134.27 0L126.21 0ZM181.25-73.47L181.25-73.47Q178.82-73.47 177.15-74.94L177.15-74.94L177.15-74.94Q175.49-76.42 175.49-78.98L175.49-78.98L175.49-78.98Q175.49-81.54 177.15-83.14L177.15-83.14L177.15-83.14Q178.82-84.74 181.25-84.74L181.25-84.74L181.25-84.74Q183.68-84.74 185.28-83.26L185.28-83.26L185.28-83.26Q186.88-81.79 186.88-79.10L186.88-79.10L186.88-79.10Q186.88-76.42 185.28-74.94L185.28-74.94L185.28-74.94Q183.68-73.47 181.25-73.47L181.25-73.47ZM197.25 0L165.25 0L165.25-5.63L177.15-5.63L177.15-55.94L165.25-55.94L165.25-61.57L185.22-61.57L185.22-5.63L197.25-5.63L197.25 0ZM209.02 0L209.02-61.57L215.68-61.57L216.19-57.60L216.19-57.60Q222.34-60.42 226.43-61.44L226.43-61.44L226.43-61.44Q230.53-62.46 235.26-62.46L235.26-62.46L235.26-62.46Q244.86-62.46 249.34-57.34L249.34-57.34L249.34-57.34Q253.82-52.22 253.82-41.47L253.82-41.47L253.82 0L245.89 0L245.89-41.73L245.89-41.73Q245.89-49.28 243.46-52.61L243.46-52.61L243.46-52.61Q241.02-55.94 234.88-55.94L234.88-55.94L234.88-55.94Q230.40-55.94 226.24-55.04L226.24-55.04L226.24-55.04Q222.08-54.14 217.09-51.33L217.09-51.33L217.09 0L209.02 0ZM271.23 0L271.23-80.26L291.20-80.26L291.20-80.26Q300.93-80.26 306.75-78.59L306.75-78.59L306.75-78.59Q312.58-76.93 315.46-72.70L315.46-72.70L315.46-72.70Q318.34-68.48 318.34-60.67L318.34-60.67L318.34-60.67Q318.34-52.99 315.58-48.77L315.58-48.77L315.58-48.77Q312.83-44.54 306.18-42.88L306.18-42.88L306.18-42.88Q313.22-41.22 317.18-36.42L317.18-36.42L317.18-36.42Q321.15-31.62 321.15-23.55L321.15-23.55L321.15-23.55Q321.15-14.08 317.82-8.96L317.82-8.96L317.82-8.96Q314.50-3.84 308.03-1.92L308.03-1.92L308.03-1.92Q301.57 0 291.07 0L291.07 0L271.23 0ZM279.17-45.18L293.76-45.18L293.76-45.18Q302.98-45.18 307.14-48.58L307.14-48.58L307.14-48.58Q311.30-51.97 311.30-60.67L311.30-60.67L311.30-60.67Q311.30-68.10 307.01-71.04L307.01-71.04L307.01-71.04Q302.72-73.98 292.74-73.98L292.74-73.98L279.17-73.98L279.17-45.18ZM279.17-6.27L291.46-6.27L291.46-6.27Q299.01-6.27 303.62-7.55L303.62-7.55L303.62-7.55Q308.22-8.83 310.72-12.54L310.72-12.54L310.72-12.54Q313.22-16.26 313.22-23.42L313.22-23.42L313.22-23.42Q313.22-31.74 308.35-35.52L308.35-35.52L308.35-35.52Q303.49-39.30 293.89-39.30L293.89-39.30L279.17-39.30L279.17-6.27ZM357.63 0.64L357.63 0.64Q345.47 0.64 339.58-7.62L339.58-7.62L339.58-7.62Q333.70-15.87 333.70-30.98L333.70-30.98L333.70-30.98Q333.70-46.72 339.46-54.59L339.46-54.59L339.46-54.59Q345.22-62.46 357.63-62.46L357.63-62.46L357.63-62.46Q370.05-62.46 375.87-54.59L375.87-54.59L375.87-54.59Q381.70-46.72 381.70-30.98L381.70-30.98L381.70-30.98Q381.70-15.87 375.81-7.62L375.81-7.62L375.81-7.62Q369.92 0.64 357.63 0.64L357.63 0.64ZM357.63-6.02L357.63-6.02Q366.46-6.02 370.05-12.42L370.05-12.42L370.05-12.42Q373.63-18.82 373.63-30.98L373.63-30.98L373.63-30.98Q373.63-42.88 369.98-49.41L369.98-49.41L369.98-49.41Q366.34-55.94 357.63-55.94L357.63-55.94L357.63-55.94Q348.93-55.94 345.28-49.41L345.28-49.41L345.28-49.41Q341.63-42.88 341.63-30.98L341.63-30.98L341.63-30.98Q341.63-18.82 345.22-12.42L345.22-12.42L345.22-12.42Q348.80-6.02 357.63-6.02L357.63-6.02ZM417.79 0.64L417.79 0.64Q411.26 0.51 407.68-2.18L407.68-2.18L407.68-2.18Q404.10-4.86 402.75-10.11L402.75-10.11L402.75-10.11Q401.41-15.36 401.41-24.19L401.41-24.19L401.41-55.94L391.81-55.94L391.81-61.57L401.66-61.57L403.20-79.23L409.47-79.23L409.47-61.57L428.67-61.57L428.67-55.94L409.47-55.94L409.47-24.06L409.47-24.06Q409.47-16.13 410.69-12.29L410.69-12.29L410.69-12.29Q411.90-8.45 414.02-7.23L414.02-7.23L414.02-7.23Q416.13-6.02 419.97-6.02L419.97-6.02L419.97-6.02Q426.88-6.02 429.31-6.40L429.31-6.40L429.70 0L429.70 0Q424.70 0.64 417.79 0.64L417.79 0.64Z" fill="url(#editing-outline-gradient)"></path></g></g><style>text {
  font-size: 64px;
  font-family: Arial Black;
  dominant-baseline: central;
  text-anchor: middle;
}</style></svg>